# xmcd CD database file
#
# Track frame offsets:
#	150
#	11505
#	26627
#	41000
#	57767
#	75742
#	90267
#	105535
#	121330
#	136042
#	153002
#	162595
#	179012
#	191187
#	202260
#	219257
#	233302
#	244085
#	258795
#	268292
#	282680
#	293840
#
# Disc length: 4085 seconds
#
# Revision: 2
# Processed by: cddbd v1.4PL0 Copyright (c) Steve Scherf et al.
# Submitted via: CDex 1.40Beta8
#
DISCID=340ff316
DTITLE=The Hoppers - On These Grounds and Smoke Of The Battle
DYEAR=1990
DGENRE=Gospel
TTITLE0=He's Still In Business
TTITLE1=Thread Of Hope
TTITLE2=Going Through The Trials
TTITLE3=This Is It
TTITLE4=The Empty Tomb
TTITLE5=Marching On
TTITLE6=Here I Am
TTITLE7=Living It Up
TTITLE8=Lord Don't Move That Mountain
TTITLE9=Only His Blood
TTITLE10=The Church Still Stands
TTITLE11=Mary Wrapped A Present
TTITLE12=Since I Met Jesus
TTITLE13=Freed
TTITLE14=The Foot Of The Cross
TTITLE15=There's A Beautiful Land Called Heaven
TTITLE16=The Smoke Of The Battle
TTITLE17=Crossing The Finish Line
TTITLE18=What A Way To Go
TTITLE19=He Sees Only The Blood
TTITLE20=His Name Was John
TTITLE21=Old Fashioned Meeting
EXTD=YEAR: 1990 ID3G: 38
EXTT0=
EXTT1=
EXTT2=
EXTT3=
EXTT4=
EXTT5=
EXTT6=
EXTT7=
EXTT8=
EXTT9=
EXTT10=
EXTT11=
EXTT12=
EXTT13=
EXTT14=
EXTT15=
EXTT16=
EXTT17=
EXTT18=
EXTT19=
EXTT20=
EXTT21=
PLAYORDER=
